<mxfile host="app.diagrams.net" agent="Mozilla/5.0 (Windows NT 10.0; Win64; x64) AppleWebKit/537.36 (KHTML, like Gecko) Chrome/138.0.0.0 Safari/537.36 OPR/122.0.0.0" version="28.2.5">
  <diagram name="Page-1" id="DoNxcOUO0bQ46xK5QoPM">
    <mxGraphModel dx="1459" dy="634" grid="1" gridSize="10" guides="1" tooltips="1" connect="1" arrows="1" fold="1" page="1" pageScale="1" pageWidth="850" pageHeight="1100" math="0" shadow="0">
      <root>
        <mxCell id="0" />
        <mxCell id="1" parent="0" />
        <mxCell id="N_p8W7klpbYRlf7Afjsa-4" value="" style="edgeStyle=orthogonalEdgeStyle;rounded=0;orthogonalLoop=1;jettySize=auto;html=1;" edge="1" parent="1" source="N_p8W7klpbYRlf7Afjsa-1" target="N_p8W7klpbYRlf7Afjsa-3">
          <mxGeometry relative="1" as="geometry" />
        </mxCell>
        <mxCell id="N_p8W7klpbYRlf7Afjsa-1" value="" style="ellipse;whiteSpace=wrap;html=1;" vertex="1" parent="1">
          <mxGeometry x="220" y="20" width="200" height="80" as="geometry" />
        </mxCell>
        <mxCell id="N_p8W7klpbYRlf7Afjsa-2" value="Start" style="text;html=1;align=center;verticalAlign=middle;whiteSpace=wrap;rounded=0;" vertex="1" parent="1">
          <mxGeometry x="290" y="45" width="60" height="30" as="geometry" />
        </mxCell>
        <mxCell id="N_p8W7klpbYRlf7Afjsa-9" value="" style="edgeStyle=orthogonalEdgeStyle;rounded=0;orthogonalLoop=1;jettySize=auto;html=1;" edge="1" parent="1" source="N_p8W7klpbYRlf7Afjsa-3" target="N_p8W7klpbYRlf7Afjsa-8">
          <mxGeometry relative="1" as="geometry" />
        </mxCell>
        <mxCell id="N_p8W7klpbYRlf7Afjsa-3" value="" style="ellipse;whiteSpace=wrap;html=1;" vertex="1" parent="1">
          <mxGeometry x="220" y="180" width="200" height="80" as="geometry" />
        </mxCell>
        <mxCell id="N_p8W7klpbYRlf7Afjsa-5" value="Connect Database" style="text;html=1;align=center;verticalAlign=middle;whiteSpace=wrap;rounded=0;" vertex="1" parent="1">
          <mxGeometry x="290" y="205" width="60" height="30" as="geometry" />
        </mxCell>
        <mxCell id="N_p8W7klpbYRlf7Afjsa-52" value="" style="edgeStyle=orthogonalEdgeStyle;rounded=0;orthogonalLoop=1;jettySize=auto;html=1;" edge="1" parent="1" source="N_p8W7klpbYRlf7Afjsa-8" target="N_p8W7klpbYRlf7Afjsa-51">
          <mxGeometry relative="1" as="geometry" />
        </mxCell>
        <mxCell id="N_p8W7klpbYRlf7Afjsa-8" value="" style="whiteSpace=wrap;html=1;" vertex="1" parent="1">
          <mxGeometry x="260" y="350" width="140" height="60" as="geometry" />
        </mxCell>
        <mxCell id="N_p8W7klpbYRlf7Afjsa-10" value="SearchUsername()" style="text;html=1;align=center;verticalAlign=middle;whiteSpace=wrap;rounded=0;" vertex="1" parent="1">
          <mxGeometry x="300" y="365" width="60" height="30" as="geometry" />
        </mxCell>
        <mxCell id="N_p8W7klpbYRlf7Afjsa-59" value="" style="edgeStyle=orthogonalEdgeStyle;rounded=0;orthogonalLoop=1;jettySize=auto;html=1;" edge="1" parent="1" source="N_p8W7klpbYRlf7Afjsa-51" target="N_p8W7klpbYRlf7Afjsa-58">
          <mxGeometry relative="1" as="geometry" />
        </mxCell>
        <mxCell id="N_p8W7klpbYRlf7Afjsa-62" value="" style="edgeStyle=orthogonalEdgeStyle;rounded=0;orthogonalLoop=1;jettySize=auto;html=1;" edge="1" parent="1" source="N_p8W7klpbYRlf7Afjsa-51" target="N_p8W7klpbYRlf7Afjsa-61">
          <mxGeometry relative="1" as="geometry" />
        </mxCell>
        <mxCell id="N_p8W7klpbYRlf7Afjsa-51" value="" style="rhombus;whiteSpace=wrap;html=1;" vertex="1" parent="1">
          <mxGeometry x="250" y="480" width="160" height="80" as="geometry" />
        </mxCell>
        <mxCell id="N_p8W7klpbYRlf7Afjsa-53" value="Ja" style="text;html=1;align=center;verticalAlign=middle;whiteSpace=wrap;rounded=0;" vertex="1" parent="1">
          <mxGeometry x="425" y="490" width="60" height="30" as="geometry" />
        </mxCell>
        <mxCell id="N_p8W7klpbYRlf7Afjsa-58" value="" style="whiteSpace=wrap;html=1;" vertex="1" parent="1">
          <mxGeometry x="270" y="650" width="120" height="60" as="geometry" />
        </mxCell>
        <mxCell id="N_p8W7klpbYRlf7Afjsa-61" value="" style="whiteSpace=wrap;html=1;" vertex="1" parent="1">
          <mxGeometry x="510" y="490" width="120" height="60" as="geometry" />
        </mxCell>
        <mxCell id="N_p8W7klpbYRlf7Afjsa-63" value="Nee" style="text;html=1;align=center;verticalAlign=middle;whiteSpace=wrap;rounded=0;" vertex="1" parent="1">
          <mxGeometry x="340" y="600" width="60" height="30" as="geometry" />
        </mxCell>
        <mxCell id="N_p8W7klpbYRlf7Afjsa-64" value="InsertUser()" style="text;html=1;align=center;verticalAlign=middle;whiteSpace=wrap;rounded=0;" vertex="1" parent="1">
          <mxGeometry x="300" y="657.5" width="60" height="45" as="geometry" />
        </mxCell>
        <mxCell id="N_p8W7klpbYRlf7Afjsa-65" value="Gevonden?" style="text;html=1;align=center;verticalAlign=middle;whiteSpace=wrap;rounded=0;" vertex="1" parent="1">
          <mxGeometry x="290" y="505" width="60" height="30" as="geometry" />
        </mxCell>
        <mxCell id="N_p8W7klpbYRlf7Afjsa-66" value="User already exists" style="text;html=1;align=center;verticalAlign=middle;whiteSpace=wrap;rounded=0;" vertex="1" parent="1">
          <mxGeometry x="540" y="497.5" width="60" height="45" as="geometry" />
        </mxCell>
      </root>
    </mxGraphModel>
  </diagram>
</mxfile>
